<svg width="24" height="23" viewBox="0 0 24 23" fill="none" xmlns="http://www.w3.org/2000/svg">
<g mask="url(#mask0_506_328)">
<path d="M5.85 16.1C6.7 15.45 7.65 14.9375 8.7 14.5625C9.75 14.1875 10.85 14 12 14C13.15 14 14.25 14.1875 15.3 14.5625C16.35 14.9375 17.3 15.45 18.15 16.1C18.7333 15.4167 19.1875 14.6417 19.5125 13.775C19.8375 12.9083 20 11.9833 20 11C20 8.78333 19.2208 6.89583 17.6625 5.3375C16.1042 3.77917 14.2167 3 12 3C9.78333 3 7.89583 3.77917 6.3375 5.3375C4.77917 6.89583 4 8.78333 4 11C4 11.9833 4.1625 12.9083 4.4875 13.775C4.8125 14.6417 5.26667 15.4167 5.85 16.1ZM12 12C11.0167 12 10.1875 11.6625 9.5125 10.9875C8.8375 10.3125 8.5 9.48333 8.5 8.5C8.5 7.51667 8.8375 6.6875 9.5125 6.0125C10.1875 5.3375 11.0167 5 12 5C12.9833 5 13.8125 5.3375 14.4875 6.0125C15.1625 6.6875 15.5 7.51667 15.5 8.5C15.5 9.48333 15.1625 10.3125 14.4875 10.9875C13.8125 11.6625 12.9833 12 12 12ZM12 21C10.6167 21 9.31667 20.7375 8.1 20.2125C6.88333 19.6875 5.825 18.975 4.925 18.075C4.025 17.175 3.3125 16.1167 2.7875 14.9C2.2625 13.6833 2 12.3833 2 11C2 9.61667 2.2625 8.31667 2.7875 7.1C3.3125 5.88333 4.025 4.825 4.925 3.925C5.825 3.025 6.88333 2.3125 8.1 1.7875C9.31667 1.2625 10.6167 1 12 1C13.3833 1 14.6833 1.2625 15.9 1.7875C17.1167 2.3125 18.175 3.025 19.075 3.925C19.975 4.825 20.6875 5.88333 21.2125 7.1C21.7375 8.31667 22 9.61667 22 11C22 12.3833 21.7375 13.6833 21.2125 14.9C20.6875 16.1167 19.975 17.175 19.075 18.075C18.175 18.975 17.1167 19.6875 15.9 20.2125C14.6833 20.7375 13.3833 21 12 21ZM12 19C12.8833 19 13.7167 18.8708 14.5 18.6125C15.2833 18.3542 16 17.9833 16.65 17.5C16 17.0167 15.2833 16.6458 14.5 16.3875C13.7167 16.1292 12.8833 16 12 16C11.1167 16 10.2833 16.1292 9.5 16.3875C8.71667 16.6458 8 17.0167 7.35 17.5C8 17.9833 8.71667 18.3542 9.5 18.6125C10.2833 18.8708 11.1167 19 12 19ZM12 10C12.4333 10 12.7917 9.85833 13.075 9.575C13.3583 9.29167 13.5 8.93333 13.5 8.5C13.5 8.06667 13.3583 7.70833 13.075 7.425C12.7917 7.14167 12.4333 7 12 7C11.5667 7 11.2083 7.14167 10.925 7.425C10.6417 7.70833 10.5 8.06667 10.5 8.5C10.5 8.93333 10.6417 9.29167 10.925 9.575C11.2083 9.85833 11.5667 10 12 10Z" fill="#1C1B1F"/>
</g>
</svg>
