<svg width="20" height="20" viewBox="0 0 20 20" fill="none" xmlns="http://www.w3.org/2000/svg">
<path fill-rule="evenodd" clip-rule="evenodd" d="M9.99999 1.66602C14.595 1.66602 18.3333 5.40435 18.3333 9.99935C18.3333 14.5943 14.595 18.3327 9.99999 18.3327C5.40499 18.3327 1.66666 14.5943 1.66666 9.99935C1.66666 5.40435 5.40499 1.66602 9.99999 1.66602ZM9.99999 2.91602C6.09416 2.91602 2.91666 6.09352 2.91666 9.99935C2.91666 13.9052 6.09416 17.0827 9.99999 17.0827C13.9058 17.0827 17.0833 13.9052 17.0833 9.99935C17.0833 6.09352 13.9058 2.91602 9.99999 2.91602ZM10.0032 12.3293C10.4641 12.3293 10.8366 12.7018 10.8366 13.1626C10.8366 13.6234 10.4641 13.9959 10.0032 13.9959C9.54241 13.9959 9.16574 13.6234 9.16574 13.1626C9.16574 12.7018 9.53491 12.3293 9.99491 12.3293H10.0032ZM9.99507 6.21102C10.3401 6.21102 10.6201 6.49102 10.6201 6.83602V10.5185C10.6201 10.8635 10.3401 11.1435 9.99507 11.1435C9.65007 11.1435 9.37007 10.8635 9.37007 10.5185V6.83602C9.37007 6.49102 9.65007 6.21102 9.99507 6.21102Z" fill="black"/>
</svg>
