<svg width="20" height="20" viewBox="0 0 20 20" fill="none" xmlns="http://www.w3.org/2000/svg">
<path fill-rule="evenodd" clip-rule="evenodd" d="M10.2079 1.66699C13.9987 1.66699 17.0829 4.77449 17.0829 8.59449C17.0829 13.2903 11.7029 17.917 10.2079 17.917C8.71292 17.917 3.33292 13.2903 3.33292 8.59449C3.33292 4.77449 6.41708 1.66699 10.2079 1.66699ZM10.2079 2.91699C7.10625 2.91699 4.58292 5.46449 4.58292 8.59449C4.58292 12.577 9.26958 16.457 10.2079 16.6637C11.1462 16.4562 15.8329 12.5762 15.8329 8.59449C15.8329 5.46449 13.3096 2.91699 10.2079 2.91699ZM10.2087 5.83366C11.7021 5.83366 12.9171 7.04866 12.9171 8.54283C12.9171 10.0362 11.7021 11.2503 10.2087 11.2503C8.71542 11.2503 7.50042 10.0362 7.50042 8.54283C7.50042 7.04866 8.71542 5.83366 10.2087 5.83366ZM10.2087 7.08366C9.40458 7.08366 8.75042 7.73783 8.75042 8.54283C8.75042 9.34699 9.40458 10.0003 10.2087 10.0003C11.0129 10.0003 11.6671 9.34699 11.6671 8.54283C11.6671 7.73783 11.0129 7.08366 10.2087 7.08366Z" fill="black"/>
</svg>
