<svg width="20" height="20" viewBox="0 0 20 20" fill="none" xmlns="http://www.w3.org/2000/svg">
<path fill-rule="evenodd" clip-rule="evenodd" d="M10.3124 1.66749C12.7458 1.66749 14.7274 3.64915 14.7274 6.08499L14.7273 7.39882C16.2067 7.91366 17.2708 9.322 17.2708 10.9748V14.549C17.2708 16.6365 15.5733 18.334 13.4858 18.334H7.11834C5.03084 18.334 3.33334 16.6365 3.33334 14.549V10.9748C3.33334 9.32231 4.39711 7.9142 5.87602 7.39911L5.87659 6.08499C5.88159 4.88499 6.34576 3.77749 7.18326 2.94749C8.02159 2.11665 9.12826 1.63582 10.3124 1.66749ZM13.4858 8.43982H7.11834C5.72001 8.43982 4.58334 9.57649 4.58334 10.9748V14.549C4.58334 15.9473 5.72001 17.084 7.11834 17.084H13.4858C14.8833 17.084 16.0208 15.9473 16.0208 14.549V10.9748C16.0208 9.57649 14.8833 8.43982 13.4858 8.43982ZM10.3019 11.2113C10.6469 11.2113 10.9269 11.4913 10.9269 11.8363V13.6872C10.9269 14.0322 10.6469 14.3122 10.3019 14.3122C9.95693 14.3122 9.67693 14.0322 9.67693 13.6872V11.8363C9.67693 11.4913 9.95693 11.2113 10.3019 11.2113ZM10.3099 2.91749H10.2966C9.45243 2.91749 8.66159 3.24249 8.06409 3.83499C7.46243 4.42999 7.12993 5.22415 7.12659 6.07082L7.12584 7.18935H13.4767L13.4774 6.08499C13.4774 4.33832 12.0566 2.91749 10.3099 2.91749Z" fill="black"/>
</svg>
