<svg width="20" height="20" viewBox="0 0 20 20" fill="none" xmlns="http://www.w3.org/2000/svg">
<path fill-rule="evenodd" clip-rule="evenodd" d="M9.4236 1.66602C11.4619 1.66602 13.1203 3.32435 13.1203 5.36268V6.13935C13.1203 6.48435 12.8403 6.76435 12.4953 6.76435C12.1503 6.76435 11.8703 6.48435 11.8703 6.13935V5.36268C11.8703 4.01268 10.7728 2.91602 9.4236 2.91602H5.3611C4.0136 2.91602 2.91693 4.01268 2.91693 5.36268V14.6368C2.91693 15.986 4.0136 17.0827 5.3611 17.0827H9.43276C10.7761 17.0827 11.8703 15.9893 11.8703 14.646V13.8602C11.8703 13.5152 12.1503 13.2352 12.4953 13.2352C12.8403 13.2352 13.1203 13.5152 13.1203 13.8602V14.646C13.1203 16.6793 11.4653 18.3327 9.43276 18.3327H5.3611C3.32443 18.3327 1.66693 16.6752 1.66693 14.6368V5.36268C1.66693 3.32435 3.32443 1.66602 5.3611 1.66602H9.4236ZM16.157 7.12768L18.597 9.55685C18.6188 9.57845 18.6383 9.60091 18.6561 9.62468L18.597 9.55685C18.6265 9.58596 18.6528 9.61776 18.6756 9.65169C18.6856 9.66705 18.6953 9.68295 18.7042 9.69928C18.7115 9.71204 18.7182 9.72536 18.7244 9.7389C18.7297 9.75086 18.7347 9.76284 18.7394 9.77499C18.7457 9.79083 18.7512 9.80711 18.756 9.82361C18.7597 9.8366 18.763 9.84956 18.7659 9.86268C18.7696 9.8786 18.7726 9.89461 18.7749 9.91075C18.7762 9.92124 18.7775 9.93224 18.7785 9.94331C18.7804 9.96232 18.7812 9.9808 18.7812 9.99935L18.7769 10.051L18.7752 10.0841C18.775 10.0855 18.7748 10.0869 18.7746 10.0884L18.7812 9.99935C18.7812 10.0456 18.7761 10.0914 18.7661 10.1359C18.763 10.1491 18.7597 10.1621 18.7559 10.1749C18.7512 10.1916 18.7457 10.2079 18.7395 10.2239C18.7347 10.2359 18.7297 10.2478 18.7243 10.2596C18.7182 10.2733 18.7115 10.2867 18.7043 10.2997C18.6953 10.3158 18.6856 10.3316 18.6753 10.347C18.6694 10.3562 18.663 10.3652 18.6563 10.3741C18.6365 10.4002 18.6149 10.4247 18.5915 10.4475L16.157 12.8718C16.0353 12.9935 15.8753 13.0543 15.7162 13.0543C15.5562 13.0543 15.3953 12.9935 15.2737 12.8702C15.0303 12.6252 15.0312 12.2302 15.2753 11.9868L16.6419 10.6243H8.12176C7.77676 10.6243 7.49676 10.3443 7.49676 9.99935C7.49676 9.65435 7.77676 9.37435 8.12176 9.37435H16.6436L15.2753 8.01268C15.0312 7.76935 15.0295 7.37435 15.2737 7.12935C15.517 6.88435 15.912 6.88435 16.157 7.12768Z" fill="#EB001B"/>
</svg>
