<svg width="20" height="20" viewBox="0 0 20 20" fill="none" xmlns="http://www.w3.org/2000/svg">
<path fill-rule="evenodd" clip-rule="evenodd" d="M8.60352 16.7547C9.03519 17.2355 9.58936 17.4997 10.1644 17.4997H10.1652C10.7427 17.4997 11.2994 17.2355 11.7319 16.7538C11.9635 16.498 12.3585 16.4772 12.6144 16.708C12.871 16.9388 12.8919 17.3347 12.661 17.5905C11.9877 18.338 11.1019 18.7497 10.1652 18.7497H10.1635C9.22935 18.7488 8.34519 18.3372 7.67436 17.5897C7.44352 17.3338 7.46435 16.938 7.72102 16.708C7.97769 16.4763 8.37269 16.4972 8.60352 16.7547ZM10.2059 0.833008C13.91 0.833008 16.3984 3.71801 16.3984 6.41217C16.3984 7.79801 16.7509 8.38551 17.125 9.00884C17.495 9.62384 17.9142 10.3222 17.9142 11.6422C17.6234 15.0147 14.1025 15.2897 10.2059 15.2897C6.30919 15.2897 2.78752 15.0147 2.50001 11.6955C2.49752 10.3222 2.91669 9.62384 3.28669 9.00884L3.41731 8.78897C3.73892 8.23622 4.01336 7.63497 4.01336 6.41217C4.01336 3.71801 6.50169 0.833008 10.2059 0.833008ZM10.2059 2.08301C7.29336 2.08301 5.26336 4.36467 5.26336 6.41217C5.26336 8.14467 4.78252 8.94551 4.35752 9.65217C4.01669 10.2197 3.74752 10.668 3.74752 11.6422C3.88669 13.2138 4.92419 14.0397 10.2059 14.0397C15.4584 14.0397 16.5284 13.1772 16.6667 11.588C16.6642 10.668 16.395 10.2197 16.0542 9.65217C15.6292 8.94551 15.1484 8.14467 15.1484 6.41217C15.1484 4.36467 13.1184 2.08301 10.2059 2.08301Z" fill="black"/>
</svg>
