<svg width="30" height="32" viewBox="0 0 30 32" fill="none" xmlns="http://www.w3.org/2000/svg">
<g filter="url(#filter0_d_172_28)">
<path fill-rule="evenodd" clip-rule="evenodd" d="M14.2281 2.08325C19.8219 2.08325 24.3719 6.63325 24.3719 12.227C24.3719 14.8661 23.3591 17.2731 21.7017 19.0796L24.9629 22.334C25.2681 22.6392 25.2692 23.1329 24.964 23.4381C24.8119 23.5923 24.6108 23.6684 24.4108 23.6684C24.2119 23.6684 24.0119 23.5923 23.8588 23.4402L20.5582 20.1489C18.822 21.5393 16.6205 22.3718 14.2281 22.3718C8.63439 22.3718 4.08334 17.8208 4.08334 12.227C4.08334 6.63325 8.63439 2.08325 14.2281 2.08325ZM14.2281 3.64575C9.49584 3.64575 5.64584 7.49471 5.64584 12.227C5.64584 16.9593 9.49584 20.8093 14.2281 20.8093C18.9594 20.8093 22.8094 16.9593 22.8094 12.227C22.8094 7.49471 18.9594 3.64575 14.2281 3.64575Z" fill="#D9D9D9"/>
</g>

</svg>
