<svg width="20" height="20" viewBox="0 0 20 20" fill="none" xmlns="http://www.w3.org/2000/svg">
<path fill-rule="evenodd" clip-rule="evenodd" d="M10.403 1.66602C11.3472 1.66602 16.3013 3.36685 16.9572 4.02268C17.5038 4.56935 17.4955 5.01102 17.4572 7.12768C17.4422 7.97602 17.4213 9.13185 17.4213 10.7318C17.4213 16.4668 10.863 18.5185 10.5838 18.6027C10.5247 18.621 10.4638 18.6293 10.403 18.6293C10.3422 18.6293 10.2813 18.621 10.2222 18.6027C9.943 18.5185 3.38467 16.4668 3.38467 10.7318C3.38467 9.13435 3.36383 7.97852 3.34883 7.13018C3.34199 6.75176 3.3361 6.42683 3.33416 6.14524L3.33392 5.82749C3.34107 4.78362 3.43904 4.43268 3.84967 4.02268C4.50383 3.36685 9.458 1.66602 10.403 1.66602ZM10.403 2.91602C9.69633 2.91602 5.238 4.48602 4.72383 4.91518C4.57217 5.06768 4.56633 5.33268 4.59883 7.10685C4.61383 7.96185 4.63467 9.12352 4.63467 10.7318C4.63467 15.066 9.403 16.9902 10.4022 17.3443C11.4005 16.9885 16.1713 15.0535 16.1713 10.7318C16.1713 9.12185 16.1922 7.95935 16.208 7.10435C16.2397 5.33185 16.2338 5.06685 16.073 4.90685C15.5688 4.48602 11.1097 2.91602 10.403 2.91602ZM13.5042 7.78227C13.7484 8.02643 13.7484 8.42227 13.5042 8.66643L10.2559 11.9156C10.1626 12.0096 10.042 12.0705 9.91266 12.0911L9.81425 12.0989C9.64842 12.0989 9.48925 12.0331 9.37175 11.9156L7.79508 10.3373C7.55175 10.0931 7.55175 9.69643 7.79592 9.4531C8.03925 9.20893 8.43592 9.20893 8.68008 9.4531L9.81425 10.5889L12.6209 7.78227C12.8651 7.5381 13.2601 7.5381 13.5042 7.78227Z" fill="black"/>
</svg>
